<svg width="90" height="90" viewBox="0 0 90 90" fill="none" xmlns="http://www.w3.org/2000/svg">
<path d="M81.7606 0H8.13068C3.64133 0 0 3.62888 0 8.1029V81.4812C0 85.9552 3.64133 89.5841 8.13068 89.5841H81.7606C86.2499 89.5841 89.8913 85.9552 89.8913 81.4812V8.1029C89.8913 3.62888 86.2499 0 81.7606 0ZM27.8176 77.3556C27.8176 78.6567 26.7576 79.7131 25.4521 79.7131H15.3799C14.0743 79.7131 13.0143 78.6567 13.0143 77.3556V35.2732C13.0143 33.9721 14.0743 32.9157 15.3799 32.9157H25.4521C26.7576 32.9157 27.8176 33.9721 27.8176 35.2732V77.3556ZM20.4123 28.9458C15.1269 28.9458 10.8421 24.6757 10.8421 19.4084C10.8421 14.1412 15.1269 9.87101 20.4123 9.87101C25.6976 9.87101 29.9824 14.1412 29.9824 19.4084C29.9824 24.6757 25.6976 28.9458 20.4123 28.9458ZM80.4588 77.5447C80.4588 78.7419 79.4843 79.7131 78.2829 79.7131H67.4742C66.2729 79.7131 65.2984 78.7419 65.2984 77.5447V57.8064C65.2984 54.8632 66.165 44.9033 57.5768 44.9033C50.9153 44.9033 49.5652 51.7199 49.2936 54.778V77.5447C49.2936 78.7419 48.3192 79.7131 47.1178 79.7131H36.6625C35.4611 79.7131 34.4866 78.7419 34.4866 77.5447V35.0841C34.4866 33.8869 35.4611 32.9157 36.6625 32.9157H47.1178C48.3192 32.9157 49.2936 33.8869 49.2936 35.0841V38.7538C51.7634 35.0582 55.4344 32.2077 63.2527 32.2077C80.5629 32.2077 80.4625 48.3246 80.4625 57.1762V77.5447H80.4588Z" fill="#FFF8EF"/>
</svg>
