<svg width="106" height="85" viewBox="0 0 106 85" fill="none" xmlns="http://www.w3.org/2000/svg">
<path d="M94.5822 7.79601C96.6993 7.79601 98.4215 9.60375 98.4215 11.826V72.3004C98.4215 74.5227 96.6993 76.3304 94.5822 76.3304H11.3138C9.19669 76.3304 7.47448 74.5227 7.47448 72.3004V11.826C7.47448 9.60375 9.19669 7.79601 11.3138 7.79601H94.5822ZM94.5822 1H11.3138C5.61631 1 1 5.84556 1 11.826V72.3004C1 78.2775 5.61631 83.1264 11.3138 83.1264H94.5822C100.276 83.1264 104.896 78.2809 104.896 72.3004V11.826C104.896 5.84896 100.28 1 94.5822 1Z" fill="#FFF8EF" stroke="#FFF8EF" stroke-width="2" stroke-miterlimit="10"/>
<path d="M52.8643 47.4374L1.94897 9.12148L5.7236 3.59632L52.8643 39.0749L100.089 3.53516L103.861 9.06031L52.8643 47.4374Z" fill="#FFF8EF" stroke="#FFF8EF" stroke-width="2" stroke-miterlimit="10"/>
</svg>
