<svg width="1129" height="1129" viewBox="0 0 1129 1129" fill="none" xmlns="http://www.w3.org/2000/svg">
<circle cx="564.142" cy="564.142" r="564.142" fill="#FFF8EF"/>
<path d="M837.442 602.737C827.51 659.002 816.772 679.062 813.272 684.371C803.38 699.436 752.071 756.605 681.508 824.749C648.076 857.04 616.315 885.989 589.687 908.468C580.287 916.393 572.322 922.844 565.635 928.075C558.949 922.844 551.004 916.413 541.583 908.468C514.955 885.989 483.195 857.04 449.762 824.749C379.2 756.586 327.891 699.436 317.999 684.371C313.849 678.039 299.414 650.86 288.322 566.63C280.593 507.926 275.736 431.287 273.828 338.05C350.88 332.268 431.413 303.929 488.032 279.74C515.604 267.96 542.704 254.862 565.635 242.276C588.566 254.862 615.666 267.96 643.238 279.74C676.258 293.84 717.399 309.357 761.255 320.98L834.039 248.195C711.106 228.647 567.228 149.51 565.655 137.356C563.846 151.241 376.269 252.581 246.414 252.581C224.348 252.581 203.954 249.65 186.412 242.885C186.412 539.156 209.717 677.134 245.745 731.924C281.773 786.714 508.466 1011.95 565.675 1030.22C622.883 1011.95 849.595 786.714 885.604 731.924C908.712 696.761 926.608 627.32 936.441 503.777L837.461 602.757L837.442 602.737Z" fill="#7267D9"/>
<path d="M546.618 785.221L328.461 567.064C321.361 559.964 321.361 548.479 328.461 541.38L393.182 476.658C400.282 469.559 411.767 469.559 418.866 476.658L546.618 604.41C553.717 611.509 565.202 611.509 572.302 604.41L893.765 282.946C900.865 275.847 912.35 275.847 919.449 282.946L984.171 347.668C991.27 354.767 991.27 366.252 984.171 373.352L572.302 785.221C565.202 792.32 553.717 792.32 546.618 785.221Z" fill="#9CE82E"/>
</svg>
