<svg width="221" height="187" viewBox="0 0 221 187" fill="none" xmlns="http://www.w3.org/2000/svg">
<path d="M46.5744 40.3422C57.7146 40.3422 66.7455 31.3112 66.7455 20.1711C66.7455 9.03089 57.7146 0 46.5744 0C35.4342 0 26.4033 9.03089 26.4033 20.1711C26.4033 31.3112 35.4342 40.3422 46.5744 40.3422Z" fill="#F6F6F6"/>
<path d="M173.833 40.3422C184.973 40.3422 194.004 31.3112 194.004 20.1711C194.004 9.03089 184.973 0 173.833 0C162.693 0 153.662 9.03089 153.662 20.1711C153.662 31.3112 162.693 40.3422 173.833 40.3422Z" fill="#F6F6F6"/>
<path d="M30.6171 63.6375H189.775C206.677 63.6375 220.392 77.3519 220.392 94.2546C220.392 145.027 179.169 186.25 128.396 186.25H91.9955C41.2233 186.25 0 145.027 0 94.2546C0 77.3519 13.7144 63.6375 30.6171 63.6375Z" fill="#F6F6F6"/>
</svg>
