<svg width="1129" height="1129" viewBox="0 0 1129 1129" fill="none" xmlns="http://www.w3.org/2000/svg">
<circle cx="564.142" cy="564.142" r="564.142" fill="#FFF8EF"/>
<path d="M902.991 294.218L950.069 341.295C1036.63 427.854 1036.63 568.427 950.069 654.987L923.831 681.224L563.046 320.44L589.284 294.202C675.844 207.643 816.416 207.643 902.976 294.202L902.991 294.218Z" fill="#7267D9" stroke="#564DA3" stroke-width="24.5279" stroke-miterlimit="10"/>
<path d="M900.507 649.133L700.221 448.846C697.691 446.316 695.028 444.075 692.209 442.055L693.297 440.968L528.851 276.522C443.92 191.613 294.632 201.911 197.118 299.446L190.838 305.727C93.3021 403.24 83.0048 552.529 167.913 637.459L332.359 801.905L423.059 711.205C425.079 714.001 427.32 716.686 429.85 719.216L630.137 919.503C655.17 944.536 695.738 944.536 720.749 919.503C743.851 896.401 745.604 860.094 726.075 834.95C751.219 854.479 787.526 852.726 810.628 829.624C833.73 806.521 835.484 770.215 815.954 745.071C841.098 764.6 877.405 762.847 900.507 739.744C925.54 714.711 925.54 674.144 900.507 649.133ZM604.283 533.399C603.639 532.911 602.996 532.423 602.352 531.934L602.84 531.446C603.306 532.112 603.795 532.756 604.305 533.377L604.283 533.399ZM512.939 621.326C513.405 621.991 513.893 622.635 514.404 623.256C513.76 622.768 513.116 622.28 512.473 621.792L512.961 621.303L512.939 621.326Z" fill="#D8FB80" stroke="#9CE82E" stroke-width="22.1924" stroke-miterlimit="10"/>
<path d="M380.909 602.121L380.893 602.105C355.872 577.085 315.306 577.085 290.285 602.105L224.439 667.951C199.419 692.971 199.419 733.538 224.439 758.559L224.455 758.574C249.476 783.595 290.042 783.595 315.063 758.574L380.909 692.729C405.929 667.708 405.929 627.142 380.909 602.121Z" fill="#7267D9" stroke="#564DA3" stroke-width="24.5279" stroke-miterlimit="10"/>
<path d="M908.363 641.277L708.076 440.991C698.245 431.159 686.327 424.635 673.722 421.395L693.296 440.968L684.241 450.023C687.104 451.932 689.856 454.151 692.386 456.681L892.673 656.967C913.334 677.629 913.334 711.228 892.673 731.889C882.664 741.898 869.37 747.402 855.212 747.402C843.783 747.402 832.908 743.806 823.876 737.149C822.212 735.085 820.414 733.065 818.505 731.157L618.219 530.87C616.355 529.006 614.424 527.275 612.427 525.655C611.894 524.922 611.406 524.146 610.917 523.413L594.34 539.991C595.094 540.502 595.849 540.968 596.581 541.522C598.201 543.52 599.954 545.45 601.796 547.315L802.083 747.601C803.947 749.465 805.878 751.196 807.875 752.839C823.232 773.566 821.59 803.016 802.815 821.791C792.807 831.799 779.513 837.303 765.355 837.303C753.925 837.303 743.051 833.708 734.019 827.05C732.354 824.986 730.557 822.967 728.648 821.058L528.362 620.772C526.497 618.907 524.567 617.176 522.569 615.556C522.037 614.824 521.549 614.047 521.06 613.315L504.483 629.893C505.237 630.403 505.992 630.869 506.724 631.424C508.344 633.421 510.097 635.352 511.939 637.216L712.226 837.503C714.09 839.367 716.021 841.098 718.018 842.74C733.375 863.468 731.733 892.917 712.958 911.692C702.949 921.701 689.656 927.205 675.497 927.205C661.339 927.205 648.045 921.701 638.037 911.692L437.75 711.405C435.22 708.876 433.001 706.146 431.092 703.261L415.18 719.173C417.266 721.925 419.53 724.588 422.06 727.096L622.347 927.382C636.55 941.585 655.413 949.397 675.497 949.397C695.582 949.397 714.445 941.585 728.648 927.382C747.534 908.496 754.236 881.977 748.777 857.676C754.17 858.874 759.718 859.518 765.377 859.518C785.461 859.518 804.324 851.706 818.528 837.503C837.413 818.617 844.115 792.097 838.656 767.796C844.049 768.995 849.597 769.638 855.256 769.638C875.34 769.638 894.204 761.827 908.407 747.624C937.723 718.307 937.723 670.616 908.407 641.322L908.363 641.277Z" fill="#9CE82E"/>
<path d="M470.788 691.991L470.772 691.975C445.752 666.954 405.185 666.954 380.164 691.975L314.319 757.82C289.298 782.841 289.298 823.408 314.319 848.428L314.335 848.444C339.355 873.465 379.922 873.465 404.943 848.444L470.788 782.599C495.809 757.578 495.809 717.011 470.788 691.991Z" fill="#7267D9" stroke="#564DA3" stroke-width="24.5279" stroke-miterlimit="10"/>
<path d="M560.667 781.882L560.651 781.867C535.63 756.846 495.064 756.846 470.043 781.867L404.198 847.712C379.177 872.733 379.177 913.299 404.198 938.32L404.213 938.336C429.234 963.356 469.801 963.356 494.822 938.336L560.667 872.49C585.688 847.47 585.688 806.903 560.667 781.882Z" fill="#7267D9" stroke="#564DA3" stroke-width="24.5279" stroke-miterlimit="10"/>
<path d="M650.545 871.752L650.53 871.736C625.509 846.715 584.942 846.715 559.922 871.736L494.076 937.581C469.055 962.602 469.055 1003.17 494.076 1028.19L494.092 1028.21C519.113 1053.23 559.679 1053.23 584.7 1028.21L650.545 962.36C675.566 937.339 675.566 896.773 650.545 871.752Z" fill="#7267D9" stroke="#564DA3" stroke-width="24.5279" stroke-miterlimit="10"/>
<path d="M650.732 324.88C637.55 324.88 625.144 328.142 614.226 333.868L591.634 311.276C586.263 305.905 577.542 305.905 572.171 311.276L372.173 511.274L381.893 520.994C427.144 566.245 500.49 566.245 545.718 520.994L601.532 465.18C615.002 475.966 632.113 482.446 650.71 482.446C694.229 482.446 729.493 447.182 729.493 403.663C729.493 360.143 694.229 324.88 650.71 324.88H650.732Z" fill="#7267D9"/>
<path d="M733.532 438.615C719.862 470.861 687.905 493.541 650.732 493.541C633.755 493.541 617.066 488.659 602.774 479.649L553.596 528.827C528.852 553.572 496.34 565.955 463.828 565.955C431.316 565.955 398.826 553.572 374.059 528.827L356.483 511.251L571.927 296.007L590.835 308.257L387.863 511.229L389.749 513.115C430.583 553.949 497.05 553.949 537.884 513.115L600.711 450.288L608.478 456.502C620.595 466.2 635.198 471.327 650.732 471.327C679.139 471.327 703.528 453.728 713.537 428.873L733.532 438.593V438.615Z" fill="#564DA3"/>
</svg>
