<svg width="1129" height="1143" viewBox="0 0 1129 1143" fill="none" xmlns="http://www.w3.org/2000/svg">
<circle cx="564.142" cy="564.142" r="564.142" fill="#FFF8EF"/>
<circle cx="564.141" cy="529.803" r="456.219" fill="#D8FB80"/>
<mask id="mask0_761_3952" style="mask-type:alpha" maskUnits="userSpaceOnUse" x="0" y="14" width="1129" height="1129">
<circle cx="564.142" cy="578.858" r="564.142" fill="#FFF8EF"/>
</mask>
<g mask="url(#mask0_761_3952)">
<path d="M760.564 240.373C834.928 240.373 893.312 305.405 886.927 381.078L839.643 940.229C834.797 986.006 797.108 1020.68 752.215 1020.68H370.77C325.877 1020.68 288.188 986.006 283.341 940.229L236.058 381.078C229.64 305.405 288.057 240.373 362.387 240.373H760.564Z" fill="#7267D9"/>
<path d="M431.444 614.648C454.213 614.648 472.67 596.191 472.67 573.422C472.67 550.654 454.213 532.197 431.444 532.197C408.676 532.197 390.219 550.654 390.219 573.422C390.219 596.191 408.676 614.648 431.444 614.648Z" fill="#F6F6F6"/>
<path d="M691.538 614.648C714.307 614.648 732.764 596.191 732.764 573.422C732.764 550.654 714.307 532.197 691.538 532.197C668.77 532.197 650.312 550.654 650.312 573.422C650.312 596.191 668.77 614.648 691.538 614.648Z" fill="#F6F6F6"/>
<path d="M398.832 662.257H724.119C758.665 662.257 786.695 690.287 786.695 724.833C786.695 828.601 702.442 912.853 598.674 912.853H524.278C420.509 912.853 336.257 828.601 336.257 724.833C336.257 690.287 364.286 662.257 398.832 662.257Z" fill="#F6F6F6"/>
<path d="M566.058 1380.88H591.206C600.538 1380.88 608.102 1388.44 608.102 1397.77V1478.98C608.102 1527.9 647.756 1567.52 696.644 1567.52H743.207C790.163 1567.52 824.807 1523.74 814.034 1478.03L703.062 1007.59H454.201L343.229 1478.03C332.456 1523.71 367.1 1567.52 414.056 1567.52H460.619C509.54 1567.52 549.161 1527.87 549.161 1478.98V1397.77C549.161 1388.44 556.725 1380.88 566.058 1380.88Z" fill="#7267D9"/>
<path d="M454.203 1007.59C339.596 1086.17 261.008 1128.74 261.008 1171.31C261.008 1213.88 333.047 1344.86 383.801 1294.1C434.556 1243.35 431.281 1200.78 395.262 1164.76C424.732 1125.47 473.85 1086.17 473.85 1086.17L454.203 1007.59Z" fill="#7267D9"/>
<path d="M703.063 1007.59C817.67 1086.17 896.257 1128.74 896.257 1171.31C896.257 1213.88 824.219 1344.86 773.464 1294.1C722.71 1243.35 725.984 1200.78 762.004 1164.76C732.533 1125.47 683.416 1086.17 683.416 1086.17L703.063 1007.59Z" fill="#7267D9"/>
<path d="M722.71 1021.01C627.52 1028.6 529.744 1028.54 434.555 1021.01V1020.35C505.939 1020.71 652.668 1018.78 722.71 1021.01Z" fill="#443E82"/>
</g>
</svg>
